<svg width="517" height="67" viewBox="0 0 517 67" fill="none" xmlns="http://www.w3.org/2000/svg">
<path d="M49.7572 17.128V55H41.3332V17.128H30.1012V9.64H61.0612V17.128H49.7572ZM73.9447 23.896C74.8567 22.6 76.0327 21.52 77.4727 20.656C78.9127 19.792 80.5687 19.36 82.4407 19.36C85.2727 19.36 87.5047 20.272 89.1367 22.096C90.8167 23.872 91.6567 26.704 91.6567 30.592V55H83.7367V32.752C83.7367 30.592 83.3287 29.032 82.5127 28.072C81.7447 27.112 80.6167 26.632 79.1287 26.632C77.5927 26.632 76.2967 27.304 75.2407 28.648C74.2327 29.944 73.7287 31.6 73.7287 33.616V55H65.8087V7.12H73.7287V23.896H73.9447ZM98.9242 7.12H106.844V14.32H98.9242V7.12ZM98.9242 20.152H106.844V55H98.9242V20.152ZM125.561 19.36C129.017 19.36 131.849 20.224 134.057 21.952C136.265 23.632 137.369 25.936 137.369 28.864L137.297 30.376H129.233V30.232C129.185 28.792 128.825 27.712 128.153 26.992C127.481 26.224 126.545 25.84 125.345 25.84C124.097 25.84 123.089 26.152 122.321 26.776C121.601 27.4 121.241 28.24 121.241 29.296C121.241 30.544 121.745 31.456 122.753 32.032C123.761 32.56 125.345 33.112 127.505 33.688C129.713 34.264 131.537 34.864 132.977 35.488C134.417 36.112 135.641 37.144 136.649 38.584C137.705 40.024 138.233 41.992 138.233 44.488C138.233 52.024 133.913 55.792 125.273 55.792C121.337 55.792 118.241 54.784 115.985 52.768C113.729 50.752 112.601 48.088 112.601 44.776L112.673 43.912H120.809V44.416C120.857 46.096 121.337 47.344 122.249 48.16C123.161 48.928 124.265 49.312 125.561 49.312C126.809 49.312 127.889 49.024 128.801 48.448C129.713 47.824 130.169 46.864 130.169 45.568C130.169 44.128 129.617 43.096 128.513 42.472C127.457 41.848 125.777 41.2 123.473 40.528C121.313 39.952 119.537 39.352 118.145 38.728C116.753 38.056 115.553 37.048 114.545 35.704C113.585 34.312 113.105 32.416 113.105 30.016C113.105 26.608 114.257 23.992 116.561 22.168C118.913 20.296 121.913 19.36 125.561 19.36ZM159.829 19.36C163.381 19.36 166.141 20.872 168.109 23.896C170.077 26.92 171.061 31.504 171.061 37.648C171.061 43.696 170.077 48.232 168.109 51.256C166.141 54.28 163.549 55.792 160.333 55.792C158.557 55.792 156.949 55.408 155.509 54.64C154.117 53.872 153.109 52.792 152.485 51.4H152.197V66.448H144.277V20.152H150.829L151.693 24.472H151.981C152.845 22.792 153.949 21.52 155.293 20.656C156.685 19.792 158.197 19.36 159.829 19.36ZM157.453 26.632C155.581 26.632 154.237 27.448 153.421 29.08C152.605 30.712 152.197 33.136 152.197 36.352V38.728C152.197 41.992 152.605 44.464 153.421 46.144C154.237 47.776 155.581 48.592 157.453 48.592C159.325 48.592 160.669 47.776 161.485 46.144C162.349 44.512 162.781 42.064 162.781 38.8V36.352C162.781 33.088 162.349 30.664 161.485 29.08C160.669 27.448 159.325 26.632 157.453 26.632ZM189.201 19.36C193.425 19.36 196.569 20.848 198.633 23.824C200.745 26.8 201.801 31.408 201.801 37.648V39.592H184.161C184.209 42.856 184.617 45.304 185.385 46.936C186.201 48.52 187.569 49.312 189.489 49.312C190.881 49.312 191.961 48.736 192.729 47.584C193.545 46.384 193.953 44.752 193.953 42.688H201.801C201.801 47.008 200.673 50.272 198.417 52.48C196.161 54.688 193.185 55.792 189.489 55.792C180.369 55.792 175.809 49.744 175.809 37.648C175.809 25.456 180.273 19.36 189.201 19.36ZM189.201 25.84C187.569 25.84 186.345 26.512 185.529 27.856C184.761 29.2 184.329 31.192 184.233 33.832H193.521C193.521 31.24 193.161 29.272 192.441 27.928C191.721 26.536 190.641 25.84 189.201 25.84ZM221.525 19.36C222.437 19.36 223.181 19.432 223.757 19.576C224.333 19.72 224.693 19.816 224.837 19.864V27.568H222.029C220.109 27.568 218.549 28.192 217.349 29.44C216.149 30.688 215.549 32.752 215.549 35.632V55H207.629V20.152H214.181L215.117 25.264H215.549C216.125 23.536 216.869 22.12 217.781 21.016C218.693 19.912 219.941 19.36 221.525 19.36Z" fill="black"/>
<path d="M263.622 37.948V58H260.706V37.948H254.55V35.32H269.814V37.948H263.622ZM275.392 42.412C276.256 40.924 277.552 40.18 279.28 40.18C280.672 40.18 281.74 40.6 282.484 41.44C283.228 42.256 283.6 43.6 283.6 45.472V58H280.9V45.652C280.9 44.524 280.684 43.744 280.252 43.312C279.844 42.856 279.232 42.628 278.416 42.628C277.528 42.628 276.772 43.06 276.148 43.924C275.524 44.764 275.212 45.916 275.212 47.38V58H272.476V34.06H275.212V42.412H275.392ZM293.138 40.18C297.29 40.18 299.366 43.228 299.366 49.324C299.366 55.372 297.29 58.396 293.138 58.396C288.962 58.396 286.874 55.372 286.874 49.324C286.874 43.228 288.962 40.18 293.138 40.18ZM293.138 42.628C290.858 42.628 289.718 44.644 289.718 48.676V49.9C289.718 53.956 290.858 55.984 293.138 55.984C295.394 55.984 296.522 53.956 296.522 49.9V48.676C296.522 46.684 296.234 45.184 295.658 44.176C295.106 43.144 294.266 42.628 293.138 42.628ZM311.352 55.984H311.136C310.272 57.592 308.88 58.396 306.96 58.396C304.08 58.396 302.64 56.644 302.64 53.14V40.576H305.376V52.96C305.376 54.088 305.58 54.88 305.988 55.336C306.42 55.768 307.032 55.984 307.824 55.984C308.712 55.984 309.468 55.552 310.092 54.688C310.74 53.824 311.064 52.672 311.064 51.232V40.576H313.764V58H311.712L311.352 55.984ZM330.142 37.768C330.142 38.824 329.878 39.724 329.35 40.468C328.846 41.212 328.15 41.704 327.262 41.944C328.294 43.048 328.81 44.416 328.81 46.048C328.81 47.848 328.306 49.264 327.298 50.296C326.314 51.328 324.97 51.856 323.266 51.88H321.43C320.974 51.88 320.59 52.036 320.278 52.348C319.99 52.66 319.846 53.032 319.846 53.464C319.846 53.896 320.002 54.268 320.314 54.58C320.626 54.868 320.998 55.012 321.43 55.012H326.398C327.622 55.012 328.606 55.408 329.35 56.2C330.118 56.992 330.502 57.952 330.502 59.08C330.502 60.52 330.046 61.696 329.134 62.608C328.246 63.544 326.998 64.012 325.39 64.012H320.458C319.09 64.012 318.022 63.616 317.254 62.824C316.51 62.056 316.138 61.072 316.138 59.872C316.138 59.032 316.342 58.276 316.75 57.604C317.158 56.932 317.722 56.452 318.442 56.164C317.986 55.876 317.626 55.504 317.362 55.048C317.122 54.568 317.002 54.076 317.002 53.572C317.002 52.876 317.218 52.276 317.65 51.772C318.106 51.244 318.706 50.836 319.45 50.548C318.802 50.044 318.298 49.408 317.938 48.64C317.602 47.872 317.434 47.008 317.434 46.048C317.434 44.224 317.938 42.796 318.946 41.764C319.978 40.708 321.37 40.18 323.122 40.18C324.01 40.18 324.85 40.396 325.642 40.828C326.362 40.444 326.878 40 327.19 39.496C327.502 38.992 327.706 38.416 327.802 37.768H330.142ZM323.086 42.448C322.15 42.448 321.43 42.772 320.926 43.42C320.422 44.044 320.17 44.92 320.17 46.048C320.17 47.224 320.41 48.124 320.89 48.748C321.394 49.348 322.126 49.648 323.086 49.648C324.046 49.648 324.778 49.336 325.282 48.712C325.81 48.064 326.074 47.176 326.074 46.048C326.074 44.896 325.81 44.008 325.282 43.384C324.778 42.76 324.046 42.448 323.086 42.448ZM320.926 57.604C320.254 57.604 319.738 57.784 319.378 58.144C319.042 58.528 318.874 59.02 318.874 59.62C318.874 60.22 319.054 60.712 319.414 61.096C319.774 61.48 320.278 61.672 320.926 61.672H325.714C326.29 61.672 326.77 61.468 327.154 61.06C327.562 60.652 327.766 60.172 327.766 59.62C327.766 59.044 327.586 58.564 327.226 58.18C326.866 57.796 326.362 57.604 325.714 57.604H320.926ZM335.72 42.412C336.584 40.924 337.88 40.18 339.608 40.18C341 40.18 342.068 40.6 342.812 41.44C343.556 42.256 343.928 43.6 343.928 45.472V58H341.228V45.652C341.228 44.524 341.012 43.744 340.58 43.312C340.172 42.856 339.56 42.628 338.744 42.628C337.856 42.628 337.1 43.06 336.476 43.924C335.852 44.764 335.54 45.916 335.54 47.38V58H332.804V34.06H335.54V42.412H335.72ZM352.89 43.024H350.586V54.4C350.586 54.904 350.718 55.3 350.982 55.588C351.246 55.852 351.63 55.984 352.134 55.984H352.89V57.856C352.674 58 352.386 58.108 352.026 58.18C351.666 58.276 351.306 58.324 350.946 58.324C349.866 58.324 349.074 57.94 348.57 57.172C348.09 56.404 347.85 55.456 347.85 54.328V43.024H346.338V40.576H347.85L348.462 35.752H350.586V40.576H352.89V43.024ZM358.757 33.808C359.573 33.808 360.329 33.94 361.025 34.204V36.112H359.585C358.529 36.112 358.001 36.628 358.001 37.66V40.576H361.025V43.024H358.001V58H355.301V43.024H353.753V40.576H355.301V37.804C355.301 36.676 355.565 35.728 356.093 34.96C356.645 34.192 357.533 33.808 358.757 33.808ZM371.715 55.984H371.499C370.635 57.592 369.243 58.396 367.323 58.396C364.443 58.396 363.003 56.644 363.003 53.14V40.576H365.739V52.96C365.739 54.088 365.943 54.88 366.351 55.336C366.783 55.768 367.395 55.984 368.187 55.984C369.075 55.984 369.831 55.552 370.455 54.688C371.103 53.824 371.427 52.672 371.427 51.232V40.576H374.127V58H372.075L371.715 55.984ZM377.761 34.06H380.497V58H377.761V34.06ZM403.14 42.628C402.996 41.716 402.864 40.816 402.744 39.928C402.648 39.016 402.576 38.392 402.528 38.056H402.384C402.336 38.392 402.252 39.016 402.132 39.928C402.036 40.816 401.916 41.716 401.772 42.628L399.036 58H395.256L390 35.32H393.096L396.552 51.016C396.696 51.544 396.828 52.276 396.948 53.212C397.092 54.124 397.188 54.724 397.236 55.012H397.38C397.404 54.772 397.464 54.256 397.56 53.464C397.68 52.648 397.812 51.832 397.956 51.016L400.584 35.32H404.616L407.424 51.016C407.568 51.88 407.7 52.696 407.82 53.464C407.94 54.232 408.012 54.748 408.036 55.012H408.144C408.192 54.724 408.276 54.136 408.396 53.248C408.54 52.36 408.684 51.616 408.828 51.016L412.32 35.32H414.948L409.692 58H405.912L403.14 42.628ZM420.166 42.412C421.03 40.924 422.326 40.18 424.054 40.18C425.446 40.18 426.514 40.6 427.258 41.44C428.002 42.256 428.374 43.6 428.374 45.472V58H425.674V45.652C425.674 44.524 425.458 43.744 425.026 43.312C424.618 42.856 424.006 42.628 423.19 42.628C422.302 42.628 421.546 43.06 420.922 43.924C420.298 44.764 419.986 45.916 419.986 47.38V58H417.25V34.06H419.986V42.412H420.166ZM432.008 34.06H434.744V37.336H432.008V34.06ZM432.008 40.576H434.744V58H432.008V40.576ZM443.275 40.18C444.835 40.18 446.059 40.636 446.947 41.548C447.835 42.46 448.279 43.6 448.279 44.968L448.243 45.616H445.435V45.292C445.435 44.524 445.243 43.888 444.859 43.384C444.475 42.856 443.863 42.592 443.023 42.592C442.159 42.592 441.547 42.832 441.187 43.312C440.851 43.792 440.683 44.344 440.683 44.968C440.683 45.688 440.935 46.24 441.439 46.624C441.967 46.984 442.771 47.344 443.851 47.704C444.835 48.04 445.639 48.388 446.263 48.748C446.911 49.084 447.463 49.6 447.919 50.296C448.375 50.992 448.603 51.904 448.603 53.032C448.603 54.832 448.099 56.176 447.091 57.064C446.083 57.952 444.739 58.396 443.059 58.396C441.187 58.396 439.783 57.904 438.847 56.92C437.911 55.936 437.443 54.724 437.443 53.284C437.443 53.02 437.443 52.84 437.443 52.744C437.467 52.648 437.479 52.588 437.479 52.564H440.323V52.924C440.323 53.956 440.587 54.736 441.115 55.264C441.643 55.768 442.327 56.02 443.167 56.02C443.911 56.02 444.535 55.792 445.039 55.336C445.543 54.88 445.795 54.244 445.795 53.428C445.795 52.804 445.639 52.3 445.327 51.916C445.039 51.508 444.667 51.196 444.211 50.98C443.779 50.74 443.167 50.476 442.375 50.188C441.391 49.828 440.599 49.492 439.999 49.18C439.423 48.844 438.919 48.352 438.487 47.704C438.079 47.056 437.875 46.204 437.875 45.148C437.875 43.612 438.355 42.4 439.315 41.512C440.299 40.624 441.619 40.18 443.275 40.18ZM458.286 40.18C459.99 40.18 461.31 40.936 462.246 42.448C463.206 43.936 463.686 46.228 463.686 49.324C463.686 52.324 463.194 54.592 462.21 56.128C461.25 57.64 460.002 58.396 458.466 58.396C457.626 58.396 456.87 58.228 456.198 57.892C455.55 57.532 455.07 57.052 454.758 56.452H454.614V63.724H451.878V40.576H453.93L454.326 42.628H454.47C454.878 41.836 455.406 41.236 456.054 40.828C456.726 40.396 457.47 40.18 458.286 40.18ZM457.71 42.628C455.646 42.628 454.614 44.644 454.614 48.676V49.9C454.614 53.956 455.646 55.984 457.71 55.984C458.766 55.984 459.546 55.504 460.05 54.544C460.578 53.584 460.842 52.036 460.842 49.9V48.676C460.842 46.54 460.578 45.004 460.05 44.068C459.546 43.108 458.766 42.628 457.71 42.628ZM472.9 40.18C474.868 40.18 476.32 40.828 477.256 42.124C478.192 43.42 478.66 45.508 478.66 48.388V50.116H469.228C469.252 52.132 469.564 53.62 470.164 54.58C470.788 55.516 471.748 55.984 473.044 55.984C473.908 55.984 474.604 55.636 475.132 54.94C475.684 54.22 475.96 53.272 475.96 52.096H478.66C478.66 54.016 478.132 55.552 477.076 56.704C476.044 57.832 474.676 58.396 472.972 58.396C470.74 58.396 469.072 57.676 467.968 56.236C466.888 54.796 466.348 52.492 466.348 49.324C466.348 46.204 466.888 43.9 467.968 42.412C469.048 40.924 470.692 40.18 472.9 40.18ZM472.9 42.628C471.724 42.628 470.848 43.048 470.272 43.888C469.72 44.704 469.384 45.964 469.264 47.668H475.816C475.816 44.308 474.844 42.628 472.9 42.628ZM487.623 40.18C487.911 40.18 488.175 40.216 488.415 40.288C488.655 40.36 488.811 40.408 488.883 40.432V43.276H487.983C487.047 43.276 486.279 43.6 485.679 44.248C485.079 44.896 484.779 45.94 484.779 47.38V58H482.043V40.576H484.095L484.491 42.88H484.671C484.911 42.112 485.271 41.476 485.751 40.972C486.231 40.444 486.855 40.18 487.623 40.18Z" fill="black"/>
</svg>
